<svg xmlns="http://www.w3.org/2000/svg" data-name="Layer 1" viewBox="0 0 380.049 406.7275" x="0px" y="0px"><path d="M354.33,74.842C360,82.549,365.665,89.8,369.406,98.356a43.332,43.332,0,0,0,4.2,6.988,3.227,3.227,0,0,0,3.638,1.233c1.829-.545,2.6-2.055,2.774-3.885.206-2.158-.822-3.813-1.87-5.662-6.4-11.274-14.316-21.675-19.475-33.668-1.726-4.018-4.686-3.8-7.307-1.2-1.891,1.881-3,4.532-4.594,6.742-6.721,9.341-13.5,18.642-20.286,27.994-3.649-1.726-5.2-4.46-6.783-7.009A93.429,93.429,0,0,0,289.76,59.519c-9.64-6.063-17.985-13.6-22.733-24.408-4.964-11.3-14.018-16.978-25.888-19.444-10.708-2.22-20.9-5.991-29.936-12.61-6.31-4.624-13.71-3.864-19.373,1.347-3.782,3.473-7.553,7.029-10.174,11.51-6.906,11.818-14.172,23.544-18.2,36.709-3.515,11.531-10.123,20.821-18.447,29.135-8.047,8.037-15.2,16.68-19.558,27.368-.966,2.374-1.438,5.262-4.953,6.916-2.158-4.624-4.43-9.095-6.361-13.72-4-9.609-10.637-16.237-20.133-20.831-7.3-3.535-14.069-8.407-20.482-13.442C63.06,59.827,57.582,60.1,49.772,70.8a234.407,234.407,0,0,0-24.8,43.657c-5.56,12.6-11.634,24.757-21.264,34.818a11.5,11.5,0,0,0-2.394,3.258,5.055,5.055,0,0,0,1.49,6.454c1.953,1.562,3.679.781,5.5-.607,1.346-1.038,2.066-3.782,4.758-2.332-2.4,4.285-4.84,8.4-7.039,12.63-1.254,2.384-.987,4.789,1.572,6.207,2.847,1.573,4.471-.421,5.776-2.528,2.343-3.772,4.378-7.749,6.885-11.408,11.952-17.5,24.737-34.458,34.839-53.183,1.408-2.6,2.035-5.919,5.889-7.2,1.737,5.221,4.337,10.123.555,15.549-11.747,16.824-22.887,34.079-37.059,49.093A130.962,130.962,0,0,0,6.516,190.16c-1.49,2.61-1.922,5.375.8,7.327,3.134,2.261,5.5-.061,6.608-2.487,6.392-14.008,17.851-24.109,27.079-35.938,4.975-6.382,9.938-12.785,15.622-20.1,0,3.782-.905,6.885.174,8.961,2.837,5.447.288,8.664-3.1,12.517-14.923,16.947-29.588,34.13-44.366,51.211-2.014,2.323-4.275,4.5-5.354,7.451-.925,2.538-.339,4.819,2.137,6.145,2.323,1.244,3.926-.277,5.139-1.983,10.934-15.385,24.89-28.19,36.452-43.06,6.351-8.171,13.494-15.725,21.469-24.922-1.151,8.941-1.193,8.91-4.584,14.2-12.322,19.238-30.317,33.379-45.2,50.316-6.074,6.926-13.38,12.763-18.283,20.728-1.13,1.819-1.88,3.813.216,5.457a4.255,4.255,0,0,0,4.841.041,13.987,13.987,0,0,0,3.874-3.237c9.332-11.4,20.184-21.386,29.947-32.362,7.728-8.694,16.885-16.042,23.791-25.5,2.827-3.864,5.57-7.79,8.4-11.654,1.551-2.117,3.792-3.587,6.166-2.159,2.888,1.727,1.2,4.163-.144,6.157-3.844,5.672-7.472,11.509-11.685,16.884-14.151,18.067-30.266,34.377-46.123,50.9-4.029,4.193-7.985,8.458-11.819,12.826-2.415,2.744-2.374,5.508.71,7.944,2.99,2.374,5.066.668,6.988-1.5,3.617-4.1,6.865-8.592,10.811-12.353C44.222,235.6,58.384,216.664,73.7,198.71c3.463-4.049,6.279-8.653,9.814-13.6,3.484,4.7,7.143,7.7.144,11.757-3.618,2.1-5.868,6.567-8.694,10C55.609,230.394,36.3,253.959,13.073,273.927a64.363,64.363,0,0,0-8.335,9.034c-2.148,2.723-2.354,5.93.843,8.057,2.97,1.983,4.953-.329,6.906-2.394q18.667-19.748,37.408-39.4c15.19-16,29.865-32.444,42.6-50.593,3.649,2.528,3.577,4.984,1.316,8.047-3.248,4.4-6.259,8.982-9.28,13.545-18.283,27.634-43.081,49.484-65.28,73.634-4.4,4.79-9.023,9.373-13.36,14.214-2.621,2.918-1.706,5.754,1.2,7.892,2.847,2.1,5.149.853,6.937-1.726,6.845-9.949,16.238-17.564,24.4-26.3C58.764,266.2,79.883,245.172,96.039,219.9c.709-1.12,1.387-2.364,3.175-2.034.956,1.613.36,3.288-.02,4.912-2.816,11.891-9.332,22.013-15.847,32.023-12.61,19.382-28.663,35.743-45.908,50.984-3.072,2.723-6.5,5.21-7.142,9.66a5.282,5.282,0,0,0,2.395,5.313,2.974,2.974,0,0,0,3.792-.236c3.371-2.908,6.289-6.4,9.917-8.89,3.987-2.743,8.581,1.337,13.473-.9,8.016-3.669,16.762-5.889,25.343-8.15,40.327-10.656,81.116-19.659,120.23-34.561,5.427-2.065,11.12-3.422,16.6-5.365,3.823-1.346,4.9.473,5.333,3.741.411,3.166-.667,5.221-3.751,6.382-4.151,1.573-8.2,3.3-12.527,4.512-20.76,5.786-41.7,10.7-62.793,15.22-29.371,6.29-58.455,13.9-87.683,20.893-4.655,1.11-9.424,1.768-14.059,2.96-2.4.617-4.4,2.158-3.648,5.221.678,2.713,2.58,3.915,5.313,3.792a19.066,19.066,0,0,0,3.032-.493c16.71-3.556,33.678-6.208,50.038-10.945q27.641-8,55.753-13.679c23.514-4.717,46.709-10.442,69.4-18.2,5.755-1.974,7.45-1.306,8.745,4.583,1.09,4.984,1.2,10.174,1.922,15.251.288,1.973.637,4.316,3.2,4.686,2.518.36,3.494-1.5,4.224-3.556,3.515-9.968,8.91-18.971,13.874-28.261,10.688-20.02,29.351-28.745,48.733-36.884,2.909-1.213,4.7.041,5.683,2.559,5.653,14.552,13.874,28.477,10.01,45.249-1.212,5.283-1.14,10.863-1.665,16.3-.37,3.751.34,7.358,4.594,7.83,4.1.453,4.676-3.175,4.954-6.34.308-3.412.555-6.835.627-10.257.185-9.085-.216-18.334,8.622-24.366.524-.36.74-1.141,1.172-1.676,6.094-7.564,12.209-15.117,18.6-23.03,1.788,4.234.514,7.492-.2,10.78a13.581,13.581,0,0,0-.112,7.112c.77,2.374,1.942,4.6,4.768,4.666,3.011.061,3.926-2.354,4.419-4.779a44.4,44.4,0,0,0,.483-5.1,60.589,60.589,0,0,0-6.69-33.8c-3.124-6.044-4.44-12.066-1.87-18.735,1.932-5,1.294-10.02-.895-14.984-1.027-2.323-2.939-4.748-1.336-7.646,7.287,1.973,11.161,7.389,14.316,13.7,1.048,2.107,2.837,4.491,5.611,2.785,2.549-1.562,1.727-4.2.617-6.444a36.732,36.732,0,0,0-9.9-12.918A34.565,34.565,0,0,1,358.091,165.4a33.359,33.359,0,0,0-4.953-7.769c-4.234-5.066-14.881-6.978-19.537-3.093-8.992,7.5-17.933,15.662-19.5,27.953-1.881,14.789-9.784,26.772-15.621,39.834a33.841,33.841,0,0,1-19.074,18.539,7.632,7.632,0,0,0-.905.484c-12.579,6.967-22.938,16.031-28.313,29.843a15.628,15.628,0,0,1-7.44,8.644c-3.474-8.767-8.366-16.731-8.561-26.268a36.862,36.862,0,0,0-8.663-23.648c-4.4-5.169-5.54-10.719-5.118-17.09.462-7-.689-13.576-4.892-19.506-3.515-4.954-2.754-10.195-.565-15.621a97.136,97.136,0,0,0,6.813-38.138c-.113-7.759,2.919-14.13,7.955-20.544,2.2,3.423,3.833,6,5.5,8.551,5.087,7.769,10.195,15.508,8.971,25.538a7.346,7.346,0,0,0,.946,3.916,3.981,3.981,0,0,0,3.176,2.3c2.178.164,3.175-1.367,3.442-3.032a35.96,35.96,0,0,0,.473-8.139,47.153,47.153,0,0,0-8.345-23.956c-8.694-12.353-10.986-26.155-9.475-42.536,4.964,10.575,10.226,19.248,18.488,25.517a49.374,49.374,0,0,1,15.549,20.04c2.056,4.717,4.491,9.353,8.766,12.466,5.581,4.049,10.925,8.232,14.255,14.491.832,1.552,2.261,2.693,4.213,2.158a4.117,4.117,0,0,0,3.114-4.686c-.421-3.751-1.326-7.41-4.326-10.154-3.536-3.227-6.763-6.875-10.586-9.7a29.658,29.658,0,0,1-10.133-12.631c-3.885-9.455-10.616-16.536-18.18-23.174-9.835-8.643-16.1-19.6-17.162-32.794-.525-6.659-2.457-11.192-9.424-12.62a5.466,5.466,0,0,1-3.34-2.117c-6.557-10.935-15.58-20.647-17.656-34.973,6.721,2.981,12.7,6.084,18.992,8.335,6.731,2.415,13.781,3.957,20.636,6.053a18.467,18.467,0,0,1,9.917,6.958C262.5,41.8,264.653,51.1,271.323,56.3c9.218,7.194,3.885,16.433,5.724,24.572.072.329.062.679.113,1.018,1.716,9.825,9.825,17.224,10.37,27.573.082,1.552,2.26,2.476,4.162,1.86,1.942-.637,2.384-2.313,2.343-4.09-.2-7.636-1.686-14.881-5.724-21.551-2.991-4.923-5.457-10.1-2.744-16.238C297.231,75.428,303.14,80.71,310.046,91c4.769,7.112,9.476,14.244,16.9,19.064a97.512,97.512,0,0,1,33.626,36.7,50.582,50.582,0,0,0,7.841,10.771c1.665,1.787,3.474,3.812,6.023,1.664,2.23-1.891,1.243-4.275.349-6.6-1.418-3.679-5.087-5.529-6.886-8.869-8.046-14.891-17.676-28.5-31.509-38.662-2.836-2.076-2.846-4.388-.832-7C341.545,90.288,346.581,81.717,354.33,74.842ZM57.952,87.822C47.213,102.035,40.728,118.9,29.69,132.906c-1.038,1.316-2.106,2.6-3.165,3.906C34.213,115.919,42.845,95.4,58,76.836,59.669,81.624,60.08,85.016,57.952,87.822ZM325.5,247.567c-3.679-1.408-2.867-3.792-1.418-5.765a231.146,231.146,0,0,1,25.158-29.053c2.99,4,.832,6.279-1.346,8.488A201.219,201.219,0,0,0,325.5,247.567Zm30.975-19.475c1.017,1.511,3.031,3.515,1.028,5.416-9.363,8.879-14.131,21.643-25.354,30.039-2.682-4.234-1.254-7.255.411-10.338,5.1-9.424,12.754-16.782,19.691-24.727C353.425,227.136,355.2,226.191,356.478,228.092Zm-5.221-38.97a5.261,5.261,0,0,1,.976,1.665c.37,1.89-.534,3.319-1.521,4.727a344.337,344.337,0,0,1-23.585,29.495c-1.264,1.449-2.8,3.443-5.087,1.7-2.693-2.066-1.234-4.163.37-6.085q12.687-15.353,25.435-30.645C348.7,188.957,349.849,188.012,351.257,189.122Zm-12.24-24.49c-1.531,8.694-7.677,17.594-16.278,23.935C323.622,177.324,330.446,170.911,339.017,164.632Zm6.043,11.006c-.74,3.464-.473,1.439.35,2.539.164.226.339.7.225.863-9.783,14.285-22.927,25.775-33.379,39.679C319.974,202.7,334.362,191.907,345.06,175.638ZM197.072,12.091c2.117,7.974-3.566,15.929-17.79,24.952C183.712,26.818,188.665,18.493,197.072,12.091ZM171.513,55.84a108.144,108.144,0,0,0,26.5-23.216c1.141-1.4,2.847-3.741,4.954-2.128,2.353,1.789,1.541,4.3-.381,6.167-10.122,9.835-20.348,19.546-32.958,26.792C168.08,59.858,169.077,57.371,171.513,55.84Zm-53.05,127.2c28.2-12.826,57.274-23.925,83.151-41.447,3.052-2.056,6.557-3.443,10.585-5.509,2.025,7,.627,10.853-4.912,13.905-29.639,16.33-60.665,29.536-92.164,41.7-.226.082-.6-.195-1.593-.545C114.147,187.868,113.766,185.175,118.463,183.038Zm86.162-9.65c-20.728,13.648-42.752,24.294-66.81,30.656-7.595,2-14.984,4.769-22.528,6.988-2.034.6-4.953,2.3-5.837-1.439a4.808,4.808,0,0,1,3.011-5.837c6.886-3.022,13.71-6.207,20.667-9.044,25.014-10.236,49.854-20.831,73.717-33.575a23.676,23.676,0,0,1,3.7-1.058C212.2,166.842,209.507,170.171,204.625,173.388Zm-3.6,21.468c-10.462,7.78-21.592,14.573-33.78,19.116-18.879,7.039-37.172,15.5-55.907,22.866-2.425.955-4.984,1.6-9.136,2.918,1.531-4.922,2.549-7.8,3.309-10.749.843-3.289,2.9-4.636,6.063-5.971,11.357-4.841,23.165-8.15,34.911-11.757,17.666-5.437,34.87-11.963,50.532-22.034,2.086-1.346,4.656-4.4,6.947-1.018C205.889,191.064,203.351,193.13,201.028,194.856ZM87.776,166.225c-.329-1.912-1.377-4.645-2.816-5.242-6.207-2.579-5.858-6.968-5.138-12.507,1.007-7.738-.093-8.447-11.85-11.335,6.485-18.139,4.748-36.638.576-56.03,5.395,1.11,8.3,3.987,11.582,6.073,3.453,2.189,6.5,5.231,10.2,6.793,19.259,8.088,23.729,25.261,23.4,42.814-.329,17.574-6.073,34.86-7.975,52.526-.174,1.6-1.11,3.124-1.747,4.81C95.813,186.183,89.677,177.468,87.776,166.225Zm7.42,85.843c.277-.76,1.685-1.808,2.271-1.634,8.777,2.528,14.85-4.08,21.849-6.813,21.612-8.448,42.855-17.862,64.231-26.916a100.089,100.089,0,0,0,16.875-9.619c2.888-1.953,6.587-7.41,9.938-1.47,3.1,5.478-3.042,6.845-6.238,8.468-12.477,6.341-24.974,12.744-37.861,18.17-23.6,9.938-47.469,19.208-71.24,28.735-1.212.493-2.476,1.336-3.905.01C90.849,257.371,94.045,255.162,95.2,252.068ZM62.484,299.681c-1.017-.154-2.209-.328-1.819-1.623a2.359,2.359,0,0,1,3.135-1.7c.555.175,1.315.771,1.367,1.254C65.413,299.681,63.615,299.322,62.484,299.681Zm161.153-54.673c1.6,3.7,1.789,6.125-3.062,7.646-27.7,8.695-54.489,20.174-82.987,26.484-13.668,3.021-27.079,7.245-40.624,10.873-3.258.873-6.537,2.1-10.082.853,1.2-2.7,3.854-2.611,6-3.32,23.051-7.574,46.143-15.025,69.184-22.65,17.882-5.92,35.168-13.34,52.259-21.232C217.543,242.172,221.212,239.387,223.637,245.008Zm-18.128-7.944c-21.2,9.506-42.691,18.18-65.115,24.623-18.365,5.283-36.288,12.076-54.417,18.18-3.185,1.069-6.176,2.929-11.263,2.344,3.217-5.221,5.282-10,12.075-7.482,1.008.38,2.58-.607,3.823-1.12,28.129-11.541,56.329-22.928,84.344-34.747,12.2-5.148,24.027-11.161,36.092-16.813C214.337,232.758,214.471,233.046,205.509,237.064Zm6.834-111.8c-25.343,14.059-49.761,29.917-77.129,40.071-6.042,2.24-11.407,6.166-18.364,7.574-1.521-5.509,1.038-8.335,5.3-10.575,11.182-5.879,22.291-11.9,33.421-17.872,22.27-11.931,44.859-23.308,65.567-37.932.843-.6,1.8-.843,3.381.226C222.97,114.418,219.691,121.17,212.343,125.26Zm5.971-27.9c-19.444,13.493-40.44,24.274-61.086,35.661-11.623,6.4-23.442,12.435-35.939,19.053-1.315-5.344-.421-7.9,3.648-10.822,10.062-7.193,20.914-13.082,31.7-18.857,19.958-10.719,38-24.316,57.366-35.888,3.155-1.891,6.341-3.73,10.123-5.94C226.947,89.045,224.121,93.33,218.314,97.359Zm2.744-36.032c2.538,3.166,2.929,6.9-1.244,9.7-4.244,2.857-8.293,6.012-12.609,8.746-25.333,16.073-50.46,32.485-76.852,46.811a12.6,12.6,0,0,1-2.507.6c-.473-3.216.5-5.385,2.456-5.919,12.631-3.443,20.811-13.7,31.273-20.42q12.009-7.724,24.048-15.488c10.02-6.464,19.876-13.216,28.231-21.921C215.591,61.615,217.739,57.155,221.058,61.327Zm-8.735-13.1a3.973,3.973,0,0,1-1.254,4.563c-3.7,3.546-7.143,7.42-11.14,10.6-18.992,15.1-40.862,25.98-60.439,40.45,6.8-8.8,12.1-19.321,24.449-21.581a5.344,5.344,0,0,0,2.487-1.706c11.633-12.128,26.545-20.431,37.963-32.836C207.729,44.083,211.048,44.627,212.323,48.224Z"/><text x="0" y="340.382" fill="#000000" font-size="5px" font-weight="bold" font-family="'Helvetica Neue', Helvetica, Arial-Unicode, Arial, Sans-serif">Created by Nurfajri Aldi</text><text x="0" y="345.382" fill="#000000" font-size="5px" font-weight="bold" font-family="'Helvetica Neue', Helvetica, Arial-Unicode, Arial, Sans-serif">from the Noun Project</text></svg>